<?xml version="1.0" encoding="utf-8"?>
<!-- Generator: Adobe Illustrator 21.1.0, SVG Export Plug-In . SVG Version: 6.00 Build 0)  -->
<svg version="1.1" id="logo_xA0_Image_1_" xmlns="http://www.w3.org/2000/svg" xmlns:xlink="http://www.w3.org/1999/xlink" x="0px"
	 y="0px" viewBox="0 0 216 175" style="enable-background:new 0 0 216 175;" xml:space="preserve">
<style type="text/css">
	.st0{fill:#080909;}
	.st1{fill:#FCFCFC;}
	.st2{fill:#E9C5B4;}
	.st3{fill:#A18D83;}
</style>
<path class="st0" d="M106.9,173c-6.7-0.8-12.9-5.1-16.1-11.5c-0.9-1.8-1.9-2.4-3.8-2.3c-11.8,0.6-22.3-3.2-30.4-11.4
	c-4.3-4.4-8-5.4-13.7-4.7c-7.4,1-13.1-5.3-13.9-14.3c-0.5-5.9-0.2-11.7,0.3-17.6c0.6-6.2,0.6-12.4,0.3-18.7
	c-0.3-4.7-1.8-8.9-5.2-12.3c-4.8-4.8-9.7-9.7-14.5-14.5c-0.8-0.8-1.5-1.6-2.2-2.4c-9.3-11.9-6.3-16.1,2.1-22.6
	C26.5,28,43.4,15.7,61,4.3c7.2-4.6,10.5-3.9,15.8,2.9c3.6,4.5,6.3,9.6,9,14.7c1.1,2,2.3,2.8,4.7,2.8c11.3-0.2,22.6-0.2,33.8,0
	c3.1,0,5-1.2,6.6-3.5c2.4-3.3,3.8-7.2,5.7-10.8c4.4-8.4,10.9-10.6,19.4-6.3c5,2.5,9.3,5.9,13.4,9.6c7.9,7.2,16.4,13.6,25.8,18.8
	c5.4,3.1,10.7,6.5,15.1,11c3.9,4,4.5,7.6,2.2,12.8c-1.8,4-4.7,7.2-7.7,10.3c-3.6,3.7-6.9,7.7-10.8,11c-6.8,5.8-7.9,13.1-7.3,21.4
	c0.7,8.8,1.3,17.7,0.7,26.6c-0.8,12-5.8,17.4-17.8,18.4c-4.7,0.4-8.6,1.4-12.1,5.4c-6.5,7.3-15.3,10-25,9.8c-2.1,0-3.3,0.5-4.4,2.2
	c-2.4,3.5-6.1,7.2-9.8,9.3C114.8,172.8,110.7,173.4,106.9,173z M108.5,141c2.9,3.7,6.2,6.6,10,8.9c12.4,7.6,34.5,6.5,39.7-14.5
	c0.8-3.4,2.2-6.6,4.3-9.4c0.5-0.6,0.8-1.6,1.8-1.5c1.1,0.2,1.3,1.3,1.5,2.2c0.5,2.2,0,4.3-0.3,6.4c-0.7,4.7-0.7,4.7,3.8,4.5
	c0.8,0,1.7,0,2.5-0.2c6.7-1.9,9.3-2.6,9.4-9.9c0-1.3,0.1-2.6,0.2-4c0.9-18.9-0.2-37.9,0.2-56.8c0.1-2.8-1.1-2.8-3.2-2.4
	c-5.4,1.1-10.8,2.2-16.2,3.1c-6.4,1-10.8-1.1-13.5-6.5c-1.7-3.5-2.3-7.3-2.6-11.1c-0.6-5.8-0.7-11.7-1.9-17.5
	c-0.4-2-1.2-2.5-3.1-2.5c-4.7,0.1-9.4,0-14,0c-17,0-34.1,0.1-51.1-0.1c-2.5,0-3.4,0.8-3.6,3c-0.3,2.9-0.7,5.7-1.1,8.6
	c-0.7,6.2-0.8,12.5-2.9,18.4c-2.4,6.5-7.2,9.3-14.1,8c-2.6-0.5-5.1-1.3-7.6-1.9c-3.2-0.8-6.5-1.6-9.9-1.3c-2,0.2-2.9,0.4-2.3,2.9
	c0.7,3,0.9,6.1,0.6,9.3c-0.8,10.6-1.6,21.3-2.2,31.9c-0.3,6.2-0.1,12.5,1.8,18.5c2.7,8.1,8.4,11.5,17,10.1c-0.6-2.9-1.4-5.8-1.8-8.8
	c-0.3-2.1,0.6-4,2.8-4.3c2-0.3,2.9,1.4,3.4,3c0.4,1.1,0.6,2.3,0.6,3.5c-0.2,9,4.8,14.8,11.9,19.1C79,156,97.9,155.9,108.5,141z
	 M103.7,152.7c-1.9,1.8-3.7,3-5.9,3.7c-3.5,1.2-3.9,2.4-2.2,5.7c1,1.9,2.5,3.2,4.5,4c6.3,2.6,12.6,2.4,18.7-0.8
	c1.5-0.8,2.8-1.9,3.6-3.4c1.1-2,1.6-3.7-1.6-4.4c-1.4-0.3-2.7-1.5-4-2.3c-1.6-0.9-3.3-2.9-5-2.2c-1.5,0.7,0,3-0.4,4.6
	c-0.1,0.2,0,0.5,0,0.7c-0.1,1.8-0.8,2.9-2.8,3c-1.9,0.1-2.9-0.7-3.4-2.5C104.7,157,105,154.9,103.7,152.7z"/>
<path class="st1" d="M108.5,141C97.9,155.9,79,156,68.8,149.8c-7.1-4.3-12.1-10.1-11.9-19.1c0-1.2-0.2-2.4-0.6-3.5
	c-0.6-1.6-1.4-3.4-3.4-3c-2.2,0.4-3.1,2.3-2.8,4.3c0.4,3,1.2,5.9,1.8,8.8c-8.5,1.4-14.3-2-17-10.1c-2-6-2.2-12.3-1.8-18.5
	c0.5-10.6,1.4-21.3,2.2-31.9c0.2-3.1,0.1-6.3-0.6-9.3c-0.6-2.5,0.4-2.8,2.3-2.9c3.4-0.3,6.7,0.5,9.9,1.3c2.5,0.7,5.1,1.4,7.6,1.9
	c6.9,1.3,11.7-1.4,14.1-8c2.2-5.9,2.2-12.2,2.9-18.4c0.3-2.9,0.8-5.7,1.1-8.6c0.2-2.3,1.2-3.1,3.6-3c17,0.1,34.1,0.1,51.1,0.1
	c4.7,0,9.4,0.1,14,0c1.9,0,2.7,0.5,3.1,2.5c1.2,5.8,1.4,11.7,1.9,17.5c0.4,3.8,0.9,7.6,2.6,11.1c2.7,5.4,7,7.5,13.5,6.5
	c5.4-0.9,10.8-2,16.2-3.1c2-0.4,3.2-0.4,3.2,2.4c-0.4,18.9,0.7,37.9-0.2,56.8c-0.1,1.3-0.1,2.6-0.2,4c-0.2,7.3-2.8,8-9.4,9.9
	c-0.8,0.2-1.7,0.2-2.5,0.2c-4.6,0.2-4.5,0.2-3.8-4.5c0.3-2.1,0.8-4.3,0.3-6.4c-0.2-0.9-0.4-2-1.5-2.2c-1-0.2-1.4,0.8-1.8,1.5
	c-2.1,2.8-3.5,6.1-4.3,9.4c-5.2,21-27.3,22.1-39.7,14.5C114.7,147.6,111.5,144.7,108.5,141z M109.2,90.4c-7.8,0.2-15.5,0.9-23.1,2.4
	c-2.9,0.6-3,1.7-2,4c4.1,10.1,12,14.3,22.3,15.1c11.2,0.9,22.8-5.6,26.9-14.9c0.8-1.9,0.7-2.8-1.5-3.6
	C124.5,91,116.9,90.6,109.2,90.4z M88.3,80.4c-0.3-2.9-0.6-5.7-2.9-7.8c-1.5-1.3-3-1.9-4.7-0.3c-3.6,3.3-4.2,12-1.1,15.6
	c2.2,2.6,4.8,2.4,6.8-0.3C87.9,85.4,88.1,82.9,88.3,80.4z M139.2,80.8c0.1-2.4-0.2-4.8-1.6-6.8c-1.8-2.6-4.8-2.8-6.6-0.5
	c-2.4,3.1-2.8,10.7-0.8,14c1,1.6,2.3,2.5,4.1,2.5c1.9,0,2.9-1.3,3.7-2.9C139,85.1,139.3,83,139.2,80.8z M132,119.4
	c0.3,1.8,1.3,3,3.1,2.9c1.7,0,2.9-1.2,2.9-2.9c0-1.9-1.2-3.2-3.2-3C133.2,116.5,132.3,117.7,132,119.4z M141.6,124.1
	c-1.6,0.4-2.9,1.3-2.9,3.1c0,1.7,1.1,3,2.9,3c1.9,0,3.2-1.2,3.1-3.1C144.6,125.3,143.4,124.3,141.6,124.1z M86.7,124.1
	c-1.5,0.5-2.9,1.3-2.8,3.1c0,1.9,1.3,3.1,3.2,3c1.8-0.1,2.8-1.3,2.7-3.1C89.8,125.2,88.5,124.4,86.7,124.1z M131.3,131.2
	c0.9-0.1,2-1.1,1.9-2.9c-0.1-1.7-1.2-2.9-3.1-2.8c-1.8,0.1-2.9,1.2-2.8,3.1C127.3,130.3,128.4,131.4,131.3,131.2z M75,125.4
	c-1.7,0.3-2.7,1.4-2.7,3.2c0.1,1.8,1.3,2.8,3.1,2.7c2-0.1,2.8-1.3,2.8-3C78.2,126.4,76.9,125.5,75,125.4z M80.1,116.3
	c-1.8,0.3-2.8,1.4-2.8,3.2c0.1,1.9,1.4,2.9,3.1,2.8c1.8-0.1,2.8-1.3,2.7-3.2C83,117.3,81.8,116.5,80.1,116.3z"/>
<path class="st2" d="M103.7,152.7c1.3,2.1,1,4.3,1.5,6.2c0.5,1.8,1.5,2.6,3.4,2.5c2-0.1,2.7-1.2,2.8-3c0-0.2,0-0.5,0-0.7
	c0.4-1.6-1.2-3.9,0.4-4.6c1.7-0.7,3.4,1.2,5,2.2c1.3,0.8,2.6,1.9,4,2.3c3.2,0.7,2.7,2.4,1.6,4.4c-0.8,1.5-2.1,2.6-3.6,3.4
	c-6.1,3.1-12.4,3.4-18.7,0.8c-1.9-0.8-3.5-2.1-4.5-4c-1.7-3.4-1.3-4.6,2.2-5.7C100,155.7,101.8,154.5,103.7,152.7z"/>
<path class="st0" d="M109.2,90.4c7.7,0.2,15.3,0.5,22.6,3.1c2.2,0.8,2.3,1.7,1.5,3.6c-4.1,9.3-15.7,15.8-26.9,14.9
	c-10.3-0.8-18.3-5-22.3-15.1c-1-2.4-0.9-3.5,2-4C93.8,91.3,101.5,90.7,109.2,90.4z M109.1,101.6c3.2,0.3,6.8-0.2,10.3-1.1
	c1-0.2,2.5-0.1,2.6-1.4c0.1-1.1-1.2-1.7-2.2-2.1c-5.5-2.5-11.3-2.4-17.2-1.5c-2.1,0.3-4.2,0.9-6,2.2c-0.5,0.4-1.2,1-1.2,1.6
	c0,0.9,1,0.8,1.7,1C100.9,101.4,104.8,101.8,109.1,101.6z"/>
<path class="st0" d="M88.3,80.4c-0.2,2.5-0.4,5-2,7.2c-2,2.8-4.5,2.9-6.8,0.3c-3.2-3.6-2.5-12.4,1.1-15.6c1.8-1.6,3.3-1,4.7,0.3
	C87.7,74.6,88.1,77.5,88.3,80.4z"/>
<path class="st0" d="M139.2,80.8c0.1,2.2-0.2,4.3-1.2,6.3c-0.8,1.6-1.8,2.9-3.7,2.9c-1.8,0-3.1-0.9-4.1-2.5
	c-2.1-3.4-1.7-10.9,0.8-14c1.8-2.3,4.8-2.1,6.6,0.5C139,76,139.3,78.3,139.2,80.8z"/>
<path class="st3" d="M132,119.4c0.2-1.6,1.1-2.9,2.9-3c2-0.1,3.2,1.1,3.2,3c0,1.7-1.2,2.9-2.9,2.9
	C133.4,122.3,132.3,121.2,132,119.4z"/>
<path class="st3" d="M141.6,124.1c1.8,0.2,3,1.2,3.1,2.9c0.1,1.9-1.2,3.1-3.1,3.1c-1.8,0-2.9-1.2-2.9-3
	C138.7,125.4,140,124.5,141.6,124.1z"/>
<path class="st3" d="M86.7,124.1c1.8,0.4,3.1,1.2,3.1,3c0.1,1.7-1,3-2.7,3.1c-1.9,0.1-3.2-1.1-3.2-3
	C83.9,125.4,85.2,124.5,86.7,124.1z"/>
<path class="st3" d="M131.3,131.2c-2.9,0.2-3.9-0.9-4.1-2.6c-0.1-1.8,1-2.9,2.8-3.1c1.9-0.2,3,1.1,3.1,2.8
	C133.3,130,132.2,131.1,131.3,131.2z"/>
<path class="st3" d="M75,125.4c1.9,0.1,3.2,1,3.3,2.8c0.1,1.7-0.8,3-2.8,3c-1.9,0-3.1-0.9-3.1-2.7C72.3,126.8,73.3,125.7,75,125.4z"
	/>
<path class="st3" d="M80.1,116.3c1.7,0.1,3,0.9,3,2.8c0.1,1.8-1,3.1-2.7,3.2c-1.7,0.1-3-0.9-3.1-2.8
	C77.2,117.7,78.3,116.7,80.1,116.3z"/>
<path class="st2" d="M109.1,101.6c-4.3,0.2-8.2-0.2-12-1.3c-0.7-0.2-1.7-0.1-1.7-1c0-0.5,0.7-1.2,1.2-1.6c1.8-1.3,3.9-1.8,6-2.2
	c5.8-0.9,11.6-1,17.2,1.5c1,0.4,2.3,1,2.2,2.1c-0.1,1.3-1.7,1.1-2.6,1.4C115.9,101.4,112.3,101.9,109.1,101.6z"/>
</svg>
